# xmcd CD database file
#
# Track frame offsets:
#	150
#	16557
#	32815
#
# Disc length: 724 seconds
#
# Revision: 0
# Processed by: cddbd v1.4PL0 Copyright (c) Steve Scherf et al.
# Submitted via: CDex 1.50beta10
#
DISCID=1402d203
DTITLE=Jimmy Collins - Rodeo Rock
DYEAR=1995
DGENRE=Country
TTITLE0=Rodeo Rock (Radio Ready Mix)
TTITLE1=Rodeo Rock (Rodeo Active Mix)
TTITLE2=Rodeo Rock (Butt Rockin' Boot Stompin' Mix)
EXTD=YEAR: 1995
EXTT0=
EXTT1=
EXTT2=
PLAYORDER=
